<svg xmlns="http://www.w3.org/2000/svg" xml:space="preserve" viewBox="0 0 32 32" id="behance">
  <g id="OUTLINE_copy_2">
    <path d="M13.365 16.525h-3.15v3.15h3.15c.227 0 1.575-.016 1.575-1.575s-1.575-1.575-1.575-1.575zM14.091 13.622c0-1.281-.988-1.297-.988-1.297h-2.887v2.625h2.887s.988 0 .988-1.328zM21.24 14.95c-1.61 0-1.575 1.575-1.575 1.575h3.15s.034-1.575-1.575-1.575z"></path>
    <path d="M16 0C7.163 0 0 7.164 0 16s7.163 16 16 16c8.836 0 16-7.164 16-16S24.837 0 16 0zm3.14 11.8h4.2v1.05h-4.2V11.8zm-2.362 6.3c0 3.241-2.887 3.15-2.887 3.15H8.115v-10.5l5.644.009c1.647 0 2.725.937 2.725 2.836 0 1.901-1.589 2.022-1.589 2.022 2.095.001 1.883 2.483 1.883 2.483zm4.462 1.575c1.575 0 1.575-1.575 1.575-1.575h2.1c0 3.15-3.675 3.15-3.675 3.15-4.2 0-3.937-3.937-3.937-3.937s-.007-3.937 3.937-3.937c3.675 0 3.675 3.15 3.675 4.2h-5.25c0 2.099 1.575 2.099 1.575 2.099z"></path>
  </g>
</svg>
