<svg xmlns="http://www.w3.org/2000/svg" width="27.478" height="27.999" viewBox="0 0 27.478 27.999" id="color">
  <g fill="none" transform="matrix(1.99963 0 0 1.99999 -.267 0)">
    <path fill="#000" d="M8.5 2.5C7.6774713 2.5 7 3.1774713 7 4 7 4.8225287 7.6774713 5.5 8.5 5.5 9.3225287 5.5 10 4.8225287 10 4 10 3.1774713 9.3225287 2.5 8.5 2.5zm0 1C8.7820301 3.5 9 3.7179699 9 4 9 4.2820301 8.7820301 4.5 8.5 4.5 8.2179699 4.5 8 4.2820301 8 4 8 3.7179699 8.2179699 3.5 8.5 3.5zM4.5 8.5c-.546389 0-1 .453611-1 1 0 .546389.453611 1 1 1 .546389 0 1-.453611 1-1 0-.546389-.453611-1-1-1zM4.5 4C3.6774713 4 3 4.6774713 3 5.5 3 6.3225287 3.6774713 7 4.5 7 5.3225287 7 6 6.3225287 6 5.5 6 4.6774713 5.3225287 4 4.5 4zm0 1C4.7820301 5 5 5.2179699 5 5.5 5 5.7820301 4.7820301 6 4.5 6 4.2179699 6 4 5.7820301 4 5.5 4 5.2179699 4.2179699 5 4.5 5z" color="#000" style="-inkscape-stroke:none"></path>
    <path fill="#000" d="M 6.1855469,0.06445312 C 5.5558132,0.15043441 4.9382219,0.32109982 4.3496094,0.57617187 3.1723854,1.0863209 2.1586626,1.9113731 1.4179687,2.9589844 0.67727419,4.0065858 0.23883228,5.2376262 0.15039062,6.5175781 0.06195001,7.7975306 0.32644286,9.0772727 0.91601563,10.216797 1.5055739,11.356262 2.3962782,12.311355 3.4921875,12.978516 4.5880526,13.645763 5.8458769,13.999462 7.1289062,14 7.763892,14.0017 8.3949264,13.91392 9.0058594,13.740234 9.3281418,13.649294 9.6079742,13.446887 9.7929688,13.167969 9.9754174,12.892889 10.049366,12.560062 10.011719,12.232422 9.991376,11.949169 9.8973592,11.673938 9.7285156,11.445313 9.555414,11.211071 9.3180839,11.033184 9.0449219,10.931641 a 0.50009501,0.50009501 0 0 0 -0.019531,-0.0059 C 8.6860154,10.814207 8.3985253,10.584399 8.2128906,10.279297 8.0272241,9.9740547 7.9567083,9.6143255 8.0136719,9.2617188 8.0706275,8.9091219 8.251166,8.5885897 8.5234375,8.3574219 8.7957153,8.1262487 9.140866,7.9990172 9.4980469,8 A 0.50009501,0.50009501 0 0 0 9.5,8 h 1.869141 C 11.770033,8.00113 12.165117,7.906365 12.521484,7.7226562 12.877707,7.5389581 13.184367,7.2725703 13.416016,6.9453125 13.647644,6.6180705 13.796698,6.2388566 13.851563,5.8417969 13.906442,5.4446137 13.864852,5.039883 13.730469,4.6621094 13.302176,3.4526903 12.551047,2.3849062 11.556641,1.5742187 10.562229,0.76351605 9.3626827,0.24229686 8.0917969,0.06640625 7.4563495,-0.02153893 6.8152805,-0.02152816 6.1855469,0.06445312 Z M 7.9550781,1.0566406 c 1.0893718,0.1507691 2.1163629,0.598053 2.9687499,1.2929688 0.852392,0.694911 1.498128,1.6098457 1.865235,2.6464843 a 0.50009501,0.50009501 0 0 0 0,0.00195 c 0.08062,0.2266257 0.105185,0.468775 0.07226,0.7070312 C 12.828392,5.9434378 12.738581,6.17085 12.599609,6.3671875 12.460658,6.5634891 12.276277,6.7237428 12.0625,6.8339844 11.848667,6.9442157 11.611601,7.0006749 11.371094,7 a 0.50009501,0.50009501 0 0 0 -0.002,0 H 9.5019531 9.5 C 8.9056523,6.9988145 8.3300537,7.2090521 7.8769531,7.59375 7.4233653,7.9788616 7.122228,8.5141603 7.0273437,9.1015625 6.9324474,9.6889749 7.050162,10.290471 7.359375,10.798828 7.6686398,11.307125 8.1476668,11.689175 8.7128906,11.875 l -0.017578,-0.0059 c 0.091078,0.03386 0.1707575,0.09372 0.2285156,0.171875 0.057773,0.07823 0.092078,0.170513 0.097656,0.267578 a 0.50009501,0.50009501 0 0 0 0.00195,0.03516 c 0.01211,0.0954 -0.00937,0.191375 -0.0625,0.271484 -0.053127,0.0801 -0.1342714,0.138222 -0.2265625,0.164063 a 0.50009501,0.50009501 0 0 0 -0.00195,0 C 8.211456,12.927408 7.6725925,13.001473 7.1308594,13 6.0311111,12.999538 4.9530247,12.696951 4.0136719,12.125 3.0743432,11.553162 2.3100482,10.734545 1.8046875,9.7578125 1.2993194,8.7810388 1.0706752,7.6830827 1.1464844,6.5859375 1.2222946,5.4887918 1.5994709,4.435086 2.234375,3.5371094 2.8692798,2.6391225 3.738953,1.9314306 4.7480469,1.4941406 5.7571397,1.0568557 6.8656953,0.90587131 7.9550781,1.0566406 Z" color="#000" style="-inkscape-stroke:none"></path>
  </g>
</svg>
