<svg xmlns="http://www.w3.org/2000/svg" id="prototype" viewBox="0 0 64 64">
  <path d="M57,21h-16c-2.76,0-5,2.24-5,5v13h-2c-.55,0-1-.45-1-1v-15c0-1.65-1.35-3-3-3h-2v-12c0-2.76-2.24-5-5-5H7c-2.76,0-5,2.24-5,5v30c0,2.76,2.24,5,5,5h16c2.76,0,5-2.24,5-5v-16h2c.55,0,1,.45,1,1v15c0,1.65,1.35,3,3,3h2v15c0,2.76,2.24,5,5,5h16c2.76,0,5-2.24,5-5v-30c0-2.76-2.24-5-5-5ZM7,5h16c1.65,0,3,1.35,3,3v27H4V8c0-1.65,1.35-3,3-3ZM26,38c0,1.65-1.35,3-3,3H7c-1.65,0-3-1.35-3-3v-1h22v1ZM38,26c0-1.65,1.35-3,3-3h16c1.65,0,3,1.35,3,3v27h-22v-27ZM60,56c0,1.65-1.35,3-3,3h-16c-1.65,0-3-1.35-3-3v-1h22v1Z" style="stroke-width:0"></path>
  <path d="M44 46h10c1.65 0 3-1.35 3-3v-10c0-1.65-1.35-3-3-3h-10c-1.65 0-3 1.35-3 3v10c0 1.65 1.35 3 3 3ZM43 33c0-.55.45-1 1-1h10c.55 0 1 .45 1 1v10c0 .55-.45 1-1 1h-10c-.55 0-1-.45-1-1v-10ZM10 25h10c1.65 0 3-1.35 3-3v-2c0-1.65-1.35-3-3-3h-10c-1.65 0-3 1.35-3 3v2c0 1.65 1.35 3 3 3ZM9 20c0-.55.45-1 1-1h10c.55 0 1 .45 1 1v2c0 .55-.45 1-1 1h-10c-.55 0-1-.45-1-1v-2Z" style="stroke-width:0"></path>
</svg>
