<svg xmlns="http://www.w3.org/2000/svg" viewBox="0 0 48 48" id="text">
  <g>
    <path d="M4,20C4,12.46,4,8.69,6.34,6.34S12.46,4,20,4h8c7.54,0,11.31,0,13.66,2.34S44,12.46,44,20v8c0,7.54,0,11.31-2.34,13.66S35.54,44,28,44H20c-7.54,0-11.31,0-13.66-2.34S4,35.54,4,28Z"></path>
    <path fill="#fff" d="M32,14.25H16A1.76,1.76,0,0,0,14.25,16V32A1.76,1.76,0,0,0,16,33.75H32A1.76,1.76,0,0,0,33.75,32V16A1.76,1.76,0,0,0,32,14.25ZM32.25,32a.25.25,0,0,1-.25.25H16a.25.25,0,0,1-.25-.25V16a.25.25,0,0,1,.25-.25H32a.25.25,0,0,1,.25.25Zm-2.5-13v1a.75.75,0,0,1-1.5,0v-.25h-3.5v8.5H26a.75.75,0,0,1,0,1.5H22a.75.75,0,0,1,0-1.5h1.25v-8.5h-3.5V20a.75.75,0,0,1-1.5,0V19a.76.76,0,0,1,.75-.75H29A.76.76,0,0,1,29.75,19Z"></path>
  </g>
</svg>
